kopru_tumbacak
version=1
nRows=55
nColumns=15
inDegrees=yes
endheader
time	sacrum_pitch	sacrum_roll	sacrum_yaw	sacrum_x	sacrum_y	sacrum_z	sacroiliac_flx	hip_flx	hip_add	hip_int	knee_flx	ankle_flx	ankle_add	ankle_int
0.747600	20.633716	0.000000	0.000000	0.000000	0.050000	0.000000	3.700000	-8.510842	-10.000000	0.000000	-91.418479	-26.677531	-5.000000	0.000000
0.752550	20.633716	0.000000	0.000000	0.000000	0.050000	0.000000	3.700000	-8.538997	-10.000000	0.000000	-91.035891	-27.515785	-5.000000	0.000000
0.757500	20.633716	0.000000	0.000000	0.000000	0.050000	0.000000	3.700000	-8.587785	-10.000000	0.000000	-91.237383	-28.229370	-5.000000	0.000000
0.762450	20.633716	0.000000	0.000000	0.000000	0.050000	0.000000	3.700000	-8.541286	-10.000000	0.000000	-91.445702	-29.761274	-5.000000	0.000000
0.767400	20.633716	0.000000	0.000000	0.000000	0.050000	0.000000	3.700000	-8.500000	-10.000000	0.000000	-91.166898	-29.770881	-5.000000	0.000000
0.772350	20.633716	0.000000	0.000000	0.000000	0.050000	0.000000	3.700000	-8.763004	-10.000000	0.000000	-91.500000	-29.511330	-5.000000	0.000000
0.777300	20.633716	0.000000	0.000000	0.000000	0.050000	0.000000	3.700000	-8.500000	-10.000000	0.000000	-91.483233	-30.678549	-5.000000	0.000000
0.782250	20.633716	0.000000	0.000000	0.000000	0.050000	0.000000	3.700000	-8.525950	-10.000000	0.000000	-91.120716	-30.774675	-5.000000	0.000000
0.787200	20.633716	0.000000	0.000000	0.000000	0.050000	0.000000	3.700000	-8.505750	-10.000000	0.000000	-91.097374	-30.525339	-5.000000	0.000000
0.792150	20.633716	0.000000	0.000000	0.000000	0.050000	0.000000	3.700000	-8.818282	-10.000000	0.000000	-91.159181	-28.971495	-5.000000	0.000000
0.797100	20.633716	0.000000	0.000000	0.000000	0.050000	0.000000	3.700000	-8.511588	-10.000000	0.000000	-91.500000	-29.419282	-5.000000	0.000000
0.802050	20.633716	0.000000	0.000000	0.000000	0.050000	0.000000	3.700000	-8.948117	-10.000000	0.000000	-91.041352	-30.149761	-5.000000	0.000000
0.807000	20.633716	0.000000	0.000000	0.000000	0.050000	0.000000	3.700000	-8.977175	-10.000000	0.000000	-91.199696	-29.876227	-5.000000	0.000000
0.811950	20.633716	0.000000	0.000000	0.000000	0.050000	0.000000	3.700000	-8.858924	-10.000000	0.000000	-91.275553	-29.219636	-5.000000	0.000000
0.816900	20.633716	0.000000	0.000000	0.000000	0.050000	0.000000	3.700000	-8.770156	-10.000000	0.000000	-91.325790	-28.865500	-5.000000	0.000000
0.821850	20.633716	0.000000	0.000000	0.000000	0.050000	0.000000	3.700000	-8.579214	-10.000000	0.000000	-91.747911	-28.275785	-5.000000	0.000000
0.826800	20.633716	0.000000	0.000000	0.000000	0.050000	0.000000	3.700000	-8.276576	-10.000000	0.000000	-92.301724	-27.283986	-5.000000	0.000000
0.831750	20.633716	0.000000	0.000000	0.000000	0.050000	0.000000	3.700000	-7.825523	-10.000000	0.000000	-93.011814	-26.062265	-5.000000	0.000000
0.836700	20.633716	0.000000	0.000000	0.000000	0.050000	0.000000	3.700000	-7.185926	-10.000000	0.000000	-93.900652	-24.600051	-5.000000	0.000000
0.841650	20.633716	0.000000	0.000000	0.000000	0.050000	0.000000	3.700000	-6.336464	-10.000000	0.000000	-94.991004	-23.068206	-5.000000	0.000000
0.846600	20.633716	0.000000	0.000000	0.000000	0.050000	0.000000	3.700000	-5.260720	-10.000000	0.000000	-96.265151	-21.160242	-5.000000	0.000000
0.851550	20.633716	0.000000	0.000000	0.000000	0.050000	0.000000	3.700000	-3.938847	-10.000000	0.000000	-97.782337	-19.085490	-5.000000	0.000000
0.856500	20.633716	0.000000	0.000000	0.000000	0.050000	0.000000	3.700000	-2.405378	-10.000000	0.000000	-99.499587	-16.818659	-5.000000	0.000000
0.861450	20.633716	0.000000	0.000000	0.000000	0.050000	0.000000	3.700000	-0.655322	-10.000000	0.000000	-101.420866	-14.373946	-5.000000	0.000000
0.866400	20.633716	0.000000	0.000000	0.000000	0.050000	0.000000	3.700000	1.307973	-10.000000	0.000000	-103.538096	-11.767744	-5.000000	0.000000
0.871350	20.633716	0.000000	0.000000	0.000000	0.050000	0.000000	3.700000	3.452357	-10.000000	0.000000	-105.892948	-8.985565	-5.000000	0.000000
0.876300	20.633716	0.000000	0.000000	0.000000	0.050000	0.000000	3.700000	5.745430	-10.000000	0.000000	-108.506324	-6.067137	-5.000000	0.000000
0.881250	20.633716	0.000000	0.000000	0.000000	0.050000	0.000000	3.700000	8.170805	-10.000000	0.000000	-111.271396	-3.041996	-5.000000	0.000000
0.886200	20.633716	0.000000	0.000000	0.000000	0.050000	0.000000	3.700000	10.740833	-10.000000	0.000000	-114.152255	0.088730	-5.000000	0.000000
0.891150	20.633716	0.000000	0.000000	0.000000	0.050000	0.000000	3.700000	13.125299	-10.000000	0.000000	-116.797524	2.757781	-5.000000	0.000000
0.896100	20.633716	0.000000	0.000000	0.000000	0.050000	0.000000	3.700000	14.799940	-10.000000	0.000000	-118.746339	4.471367	-5.000000	0.000000
0.901050	20.633716	0.000000	0.000000	0.000000	0.050000	0.000000	3.700000	16.065298	-10.000000	0.000000	-120.270643	5.803546	-5.000000	0.000000
0.906000	20.633716	0.000000	0.000000	0.000000	0.050000	0.000000	3.700000	16.664200	-10.000000	0.000000	-121.131833	6.687585	-5.000000	0.000000
0.910950	20.633716	0.000000	0.000000	0.000000	0.050000	0.000000	3.700000	17.071522	-10.000000	0.000000	-121.770958	7.412936	-5.000000	0.000000
0.915900	20.633716	0.000000	0.000000	0.000000	0.050000	0.000000	3.700000	17.319228	-10.000000	0.000000	-122.217426	7.999198	-5.000000	0.000000
0.920850	20.633716	0.000000	0.000000	0.000000	0.050000	0.000000	3.700000	17.457104	-10.000000	0.000000	-122.521755	8.486904	-5.000000	0.000000
0.925800	20.633716	0.000000	0.000000	0.000000	0.050000	0.000000	3.700000	17.529479	-10.000000	0.000000	-122.728271	8.937371	-5.000000	0.000000
0.930750	20.633716	0.000000	0.000000	0.000000	0.050000	0.000000	3.700000	17.545480	-10.000000	0.000000	-122.847419	9.406265	-5.000000	0.000000
0.935700	20.633716	0.000000	0.000000	0.000000	0.050000	0.000000	3.700000	17.507094	-10.000000	0.000000	-122.876867	9.942493	-5.000000	0.000000
0.940650	20.633716	0.000000	0.000000	0.000000	0.050000	0.000000	3.700000	17.422048	-10.000000	0.000000	-122.820495	10.603391	-5.000000	0.000000
0.945600	20.633716	0.000000	0.000000	0.000000	0.050000	0.000000	3.700000	17.302164	-10.000000	0.000000	-122.698635	11.339306	-5.000000	0.000000
0.950550	20.633716	0.000000	0.000000	0.000000	0.050000	0.000000	3.700000	17.151648	-10.000000	0.000000	-122.517539	12.105571	-5.000000	0.000000
0.955500	20.633716	0.000000	0.000000	0.000000	0.050000	0.000000	3.700000	16.974299	-10.000000	0.000000	-122.278328	12.417368	-5.000000	0.000000
0.960450	20.633716	0.000000	0.000000	0.000000	0.050000	0.000000	3.700000	16.771530	-10.000000	0.000000	-122.004670	12.384104	-5.000000	0.000000
0.965400	20.633716	0.000000	0.000000	0.000000	0.050000	0.000000	3.700000	16.527206	-10.000000	0.000000	-121.664092	12.189941	-5.000000	0.000000
0.970350	20.633716	0.000000	0.000000	0.000000	0.050000	0.000000	3.700000	16.226502	-10.000000	0.000000	-121.246864	11.940903	-5.000000	0.000000
0.975300	20.633716	0.000000	0.000000	0.000000	0.050000	0.000000	3.700000	15.853195	-10.000000	0.000000	-120.730878	11.574536	-5.000000	0.000000
0.980250	20.633716	0.000000	0.000000	0.000000	0.050000	0.000000	3.700000	15.383154	-10.000000	0.000000	-120.091555	11.080839	-5.000000	0.000000
0.985200	20.633716	0.000000	0.000000	0.000000	0.050000	0.000000	3.700000	14.790855	-10.000000	0.000000	-119.296673	10.416158	-5.000000	0.000000
0.990150	20.633716	0.000000	0.000000	0.000000	0.050000	0.000000	3.700000	14.056903	-10.000000	0.000000	-118.323604	9.518061	-5.000000	0.000000
0.995100	20.633716	0.000000	0.000000	0.000000	0.050000	0.000000	3.700000	13.163433	-10.000000	0.000000	-117.146210	8.203971	-5.000000	0.000000
1.000050	20.633716	0.000000	0.000000	0.000000	0.050000	0.000000	3.700000	12.099507	-10.000000	0.000000	-115.759267	6.525742	-5.000000	0.000000
1.005000	20.633716	0.000000	0.000000	0.000000	0.050000	0.000000	3.700000	10.888236	-10.000000	0.000000	-114.203730	4.583273	-5.000000	0.000000
1.009950	20.633716	0.000000	0.000000	0.000000	0.050000	0.000000	3.700000	9.490308	-10.000000	0.000000	-112.431027	2.376606	-5.000000	0.000000
1.014900	20.633716	0.000000	0.000000	0.000000	0.050000	0.000000	3.700000	7.913007	-10.000000	0.000000	-110.467356	-0.061339	-5.000000	0.000000
